# xmcd CD Database Entry
#
# Track frame offsets:
# 150
# 17005
# 33875
# 48715
# 65244
# 81983
# 100914
# 118172
# 132407
# 150890
# 172468
# 190275
# 204937
#
# Disc length: 2954 seconds
#
# Revision: 1
# Processed by: cddbd v1.4PL0 Copyright (c) Steve Scherf et al.
# Submitted via: tcd 2.0b
#
DISCID=b80b880d
DTITLE=Shakira - Laundry Service
DYEAR=1900
DGENRE=
TTITLE0=¦cie¿ka 1
TTITLE1=¦cie¿ka 2
TTITLE2=¦cie¿ka 3
TTITLE3=¦cie¿ka 4
TTITLE4=¦cie¿ka 5
TTITLE5=¦cie¿ka 6
TTITLE6=¦cie¿ka 7
TTITLE7=¦cie¿ka 8
TTITLE8=¦cie¿ka 9
TTITLE9=¦cie¿ka 10
TTITLE10=¦cie¿ka 11
TTITLE11=¦cie¿ka 12
TTITLE12=¦cie¿ka 13
EXTD=
EXTT0=
EXTT1=
EXTT2=
EXTT3=
EXTT4=
EXTT5=
EXTT6=
EXTT7=
EXTT8=
EXTT9=
EXTT10=
EXTT11=
EXTT12=
PLAYORDER=
